/* XPM */
static char *b0d012510f2b47ec9b13d9e7d71152a0iSpGsEtcLX8L6uKs[] = {
/* columns rows colors chars-per-pixel */
"112 112 19 1 ",
"  c #141623",
". c #181425",
"X c #3F2832",
"o c #4B363F",
"O c #743F39",
"+ c #262B44",
"@ c #532B56",
"# c #68386C",
"$ c #754B79",
"% c #FF0044",
"& c #B86F50",
"* c #C7841E",
"= c #FEAE34",
"- c #FFBC55",
"; c #E5CD45",
": c #FEE761",
"> c #5A6988",
", c #6E7B95",
"< c #FFF099",
/* pixels */
"&&&&&&&&&&&&&&&&&&&&&&&&&&&&&&&&&&&&&&&&&&&&&&&&&&&&&&&&&&&&&&&&&&&&&&&&&&&&&&&&&&&&&&&&&&&&&&&&&&&&&&&&&&&&&&&&",
"&&&&&&&&&&&&&&&&&&&&&&&&&&&&&&&&&&&&&&&&&&&&&&&&&&&&&&&&&&&&&&&&&&&&&&&&&&&&&&&&&&&&&&&&&&&&&&&&&&&&&&&&&&&&&&&&",
"&&&&&&&&&&&&&&&&&&&&&&&&&&&&&&&&&&&&&&&&&&&&&&&&&&&&&&&&&&&&&&&&&&&&&&&&&&&&&&&&&&&&&&&&&&&&&&&&&&&&&&&&&&&&&&&&",
"&&&&&&&&&&&&&&&&&&&&&&&&&&&&&&&&&&&&&&&&&&&&&&&&&&&&&&&&&&&&&&&&&&&&&&&&&&&&&&&&&&&&&&&&&&&&&&&&&&&&&&&&&&&&&&&&",
"&&&&&&&&&&&&&&&&&&&&&&&&&&&&&&&&&&&&&&&&&&&&&&&&&&&&&&&&&&&&&&&&&&&&&&&&&&&&&&&&&&&&&&&&&&&&&&&&&&&&&&&&&&&&&&&&",
"&&&&&&&&&&&&&&&&&&&&&&&&&&&&&&&&&&&&&&&&&&&&&&&&&&&&&&&&&&&&&&&&&&&&&&&&&&&&&&&&&&&&&&&&&&&&&&&&&&&&&&&&&&&&&&&&",
"&&&&&&&&&&&&&&&&&&&&&&&&&&&&&&&&&&&&&&&&&&&&&&&&&&&&&&&&&&&&&&&&&&&&&&&&&&&&&&&&&&&&&&&&&&&&&&&&&&&&&&&&&&&&&&&&",
"&&&&&&&&&&&&&&&&&&&&&&&&&&&&&&&&&&&&&&&&&&&&&&&&&&&&&&&&&&&&&&&&&&&&&&&&&&&&&&&&&&&&&&&&&&&&&&&&&&&&&&&&&&&&&&&&",
"&&&&&&&&&&&&&&&&&&&&&&&&&&&&&&&&&&&&&&&&&&&&&&&&&&&&&&&&&&&&&&&&&&&&&&&&&&&&&&&&&&&&&&&&&&&&&&&&&&&&&&&&&&&&&&&&",
"&&&&&&&&&&&&&&&&&&&&&&&&&&&&&&&&&&&&&&&&&&&&&&&&&&&&&&&&&&&&&&&&&&&&&&&&&&&&&&&&&&&&&&&&&&&&&&&&&&&&&&&&&&&&&&&&",
"&&&&&&&&&&&&&&&&&&&&&&&&&&&&&&&&&&&&&&&&&&&&&&&&&&&&&&&&&&&&&&&&&&&&&&&&&&&&&&&&&&&&&&&&&&&&&&&&&&&&&&&&&&&&&&&&",
"&&&&&&&&&&&&&&&&&&&&&&&&&&&&&&&&&&&&&&&&&&&&&&&&&&&&&&&&&&&&&&&&&&&&&&&&&&&&&&&&&&&&&&&&&&&&&&&&&&&&&&&&&&&&&&&&",
"&&&&&&&&&&&&&&&&&&&&&&&&&&&++++++++++++++++++++++++++++++++++++++++++++++++++++++++&&&&&&&&&&&&&&&&&&&&&&&&&&&&&",
"&&&&&&&&&&&&&&&&&&&&&&&&&&&++++++++++++++++++++++++++++++++++++++++++++++++++++++++&&&&&&&&&&&&&&&&&&&&&&&&&&&&&",
"&&&&&&&&&&&&&&&&&&&&&&&&&&&++++++++++++++++++++++++++++++++++++++++++++++++++++++++&&&&&&&&&&&&&&&&&&&&&&&&&&&&&",
"&&&&&&&&&&&&&&&&&&&&&&&&&&&++++++++++++++++++++++++++++++++++++++++++++++++++++++++&&&&&&&&&&&&&&&&&&&&&&&&&&&&&",
"&&&&&&&&&&&&&&&&&&&&&&&&&&&++++++++++++++++++++++++++++++++++++++++++++++++++++++++&&&&&&&&&&&&&&&&&&&&&&&&&&&&&",
"&&&&&&&&&&&&&&&&&&&&&&&&&&&++++++++++++++++++++++++++++++++++++++++++++++++++++++++&&&&&&&&&&&&&&&&&&&&&&&&&&&&&",
"&&&&&&&&&&&&&&&&&&&&&&&&&&&++++++++++++++++++++++++++++++++++++++++++++++++++++++++&&&&&&&&&&&&&&&&&&&&&&&&&&&&&",
"&&&&&&&&&&&&&&&&&&&&+++++++$$$$$$$##############@@@@@@@<<<<<<<<<<<<<<:::::::;;;;;;;+++++++&&&&&&&&&&&&&&&&&&&&&&",
"&&&&&&&&&&&&&&&&&&&&+++++++$$$$$$$##############@@@@@@@<<<<<<<<<<<<<<:::::::;;;;;;;+++++++&&&&&&&&&&&&&&&&&&&&&&",
"&&&&&&&&&&&&&&&&&&&&+++++++$$$$$$$##############@@@@@@@<<<<<<<<<<<<<<:::::::;;;;;;;+++++++&&&&&&&&&&&&&&&&&&&&&&",
"&&&&&&&&&&&&&&&&&&&&+++++++$$$$$$$##############@@@@@@@<<<<<<<<<<<<<<:::::::;;;;;;;+++++++&&&&&&&&&&&&&&&&&&&&&&",
"&&&&&&&&&&&&&&&&&&&&+++++++$$$$$$$##############@@@@@@@<<<<<<<<<<<<<<:::::::;;;;;;;+++++++&&&&&&&&&&&&&&&&&&&&&&",
"&&&&&&&&&&&&&&&&&&&&+++++++$$$$$$$##############@@@@@@@<<<<<<<<<<<<<<:::::::;;;;;;;+++++++&&&&&&&&&&&&&&&&&&&&&&",
"&&&&&&&&&&&&&&&&&&&&+++++++$$$$$$$##############@@@@@@@<<<<<<<<<<<<<<:::::::;;;;;;;+++++++&&&&&&&&&&&&&&&&&&&&&&",
"&&&&&&&&&&&&&+++++++$$$$$$$##############@@@@@@@:::::::.......                     +++++++&&&&&&&&&&&&&&&&&&&&&&",
"&&&&&&&&&&&&&+++++++$$$$$$$##############@@@@@@@:::::::.......                     +++++++&&&&&&&&&&&&&&&&&&&&&&",
"&&&&&&&&&&&&&+++++++$$$$$$$##############@@@@@@@:::::::.......                     +++++++&&&&&&&&&&&&&&&&&&&&&&",
"&&&&&&&&&&&&&+++++++$$$$$$$##############@@@@@@@:::::::.......                     +++++++&&&&&&&&&&&&&&&&&&&&&&",
"&&&&&&&&&&&&&+++++++$$$$$$$##############@@@@@@@:::::::.......                     +++++++&&&&&&&&&&&&&&&&&&&&&&",
"&&&&&&&&&&&&&+++++++$$$$$$$##############@@@@@@@:::::::.......                     +++++++&&&&&&&&&&&&&&&&&&&&&&",
"&&&&&&&&&&&&&+++++++$$$$$$$##############@@@@@@@:::::::.......                     +++++++&&&&&&&&&&&&&&&&&&&&&&",
"&&&&&&&&&&&&&+++++++$$$$$$$+++++++@@@@@@@:::::::              %%%%%%%       %%%%%%%+++++++&&&&&&&&&&&&&&&&&&&&&&",
"&&&&&&&&&&&&&+++++++$$$$$$$+++++++@@@@@@@:::::::              %%%%%%%       %%%%%%%+++++++&&&&&&&&&&&&&&&&&&&&&&",
"&&&&&&&&&&&&&+++++++$$$$$$$+++++++@@@@@@@:::::::              %%%%%%%       %%%%%%%+++++++&&&&&&&&&&&&&&&&&&&&&&",
"&&&&&&&&&&&&&+++++++$$$$$$$+++++++@@@@@@@:::::::              %%%%%%%       %%%%%%%+++++++&&&&&&&&&&&&&&&&&&&&&&",
"&&&&&&&&&&&&&+++++++$$$$$$$+++++++@@@@@@@:::::::              %%%%%%%       %%%%%%%+++++++&&&&&&&&&&&&&&&&&&&&&&",
"&&&&&&&&&&&&&+++++++$$$$$$$+++++++@@@@@@@:::::::              %%%%%%%       %%%%%%%+++++++&&&&&&&&&&&&&&&&&&&&&&",
"&&&&&&&&&&&&&+++++++$$$$$$$+++++++@@@@@@@:::::::              %%%%%%%       %%%%%%%+++++++&&&&&&&&&&&&&&&&&&&&&&",
"&&&&&&&&&&&&&&&&&&&&++++++++++++++@@@@@@@;;;;;;;              %%%%%%%       %%%%%%%+++++++&&&&&&&&&&&&&&&&&&&&&&",
"&&&&&&&&&&&&&&&&&&&&++++++++++++++@@@@@@@;;;;;;;              %%%%%%%       %%%%%%%+++++++&&&&&&&&&&&&&&&&&&&&&&",
"&&&&&&&&&&&&&&&&&&&&++++++++++++++@@@@@@@;;;;;;;              %%%%%%%       %%%%%%%+++++++&&&&&&&&&&&&&&&&&&&&&&",
"&&&&&&&&&&&&&&&&&&&&++++++++++++++@@@@@@@;;;;;;;              %%%%%%%       %%%%%%%+++++++&&&&&&&&&&&&&&&&&&&&&&",
"&&&&&&&&&&&&&&&&&&&&++++++++++++++@@@@@@@;;;;;;;              %%%%%%%       %%%%%%%+++++++&&&&&&&&&&&&&&&&&&&&&&",
"&&&&&&&&&&&&&&&&&&&&++++++++++++++@@@@@@@;;;;;;;              %%%%%%%       %%%%%%%+++++++&&&&&&&&&&&&&&&&&&&&&&",
"&&&&&&&&&&&&&&&&&&&&++++++++++++++@@@@@@@;;;;;;;              %%%%%%%       %%%%%%%+++++++&&&&&&&&&&&&&&&&&&&&&&",
"&&&&&&&&&&&&&&&&&&&&&&&&&&&+++++++ooooooo;;;;;;;                                   +++++++&&&&&&&&&&&&&&&&&&&&&&",
"&&&&&&&&&&&&&&&&&&&&&&&&&&&+++++++ooooooo;;;;;;;                                   +++++++&&&&&&&&&&&&&&&&&&&&&&",
"&&&&&&&&&&&&&&&&&&&&&&&&&&&+++++++ooooooo;;;;;;;                                   +++++++&&&&&&&&&&&&&&&&&&&&&&",
"&&&&&&&&&&&&&&&&&&&&&&&&&&&+++++++ooooooo;;;;;;;                                   +++++++&&&&&&&&&&&&&&&&&&&&&&",
"&&&&&&&&&&&&&&&&&&&&&&&&&&&+++++++ooooooo;;;;;;;                                   +++++++&&&&&&&&&&&&&&&&&&&&&&",
"&&&&&&&&&&&&&&&&&&&&&&&&&&&+++++++ooooooo;;;;;;;                                   +++++++&&&&&&&&&&&&&&&&&&&&&&",
"&&&&&&&&&&&&&&&&&&&&&&&&&&&+++++++ooooooo;;;;;;;                                   +++++++&&&&&&&&&&&&&&&&&&&&&&",
"&&&&&&&&&&&&&&&&&&&&&&&&&&&+++++++$$$$$$$XXXXXXXoooooooOOOOOOOOOOOOOOOOOOOOOooooooo+++++++&&&&&&&&&&&&&&&&&&&&&&",
"&&&&&&&&&&&&&&&&&&&&&&&&&&&+++++++$$$$$$$XXXXXXXoooooooOOOOOOOOOOOOOOOOOOOOOooooooo+++++++&&&&&&&&&&&&&&&&&&&&&&",
"&&&&&&&&&&&&&&&&&&&&&&&&&&&+++++++$$$$$$$XXXXXXXoooooooOOOOOOOOOOOOOOOOOOOOOooooooo+++++++&&&&&&&&&&&&&&&&&&&&&&",
"&&&&&&&&&&&&&&&&&&&&&&&&&&&+++++++$$$$$$$XXXXXXXoooooooOOOOOOOOOOOOOOOOOOOOOooooooo+++++++&&&&&&&&&&&&&&&&&&&&&&",
"&&&&&&&&&&&&&&&&&&&&&&&&&&&+++++++$$$$$$$XXXXXXXoooooooOOOOOOOOOOOOOOOOOOOOOooooooo+++++++&&&&&&&&&&&&&&&&&&&&&&",
"&&&&&&&&&&&&&&&&&&&&&&&&&&&+++++++$$$$$$$XXXXXXXoooooooOOOOOOOOOOOOOOOOOOOOOooooooo+++++++&&&&&&&&&&&&&&&&&&&&&&",
"&&&&&&&&&&&&&&&&&&&&&&&&&&&+++++++$$$$$$$XXXXXXXoooooooOOOOOOOOOOOOOOOOOOOOOooooooo+++++++&&&&&&&&&&&&&&&&&&&&&&",
"&&&&&&&&&&&&&&&&&&&&+++++++$$$$$$$##############@@@@@@@XXXXXXXXXXXXXXooooooo+++++++&&&&&&&&&&&&&&&&&&&&&&&&&&&&&",
"&&&&&&&&&&&&&&&&&&&&+++++++$$$$$$$##############@@@@@@@XXXXXXXXXXXXXXooooooo+++++++&&&&&&&&&&&&&&&&&&&&&&&&&&&&&",
"&&&&&&&&&&&&&&&&&&&&+++++++$$$$$$$##############@@@@@@@XXXXXXXXXXXXXXooooooo+++++++&&&&&&&&&&&&&&&&&&&&&&&&&&&&&",
"&&&&&&&&&&&&&&&&&&&&+++++++$$$$$$$##############@@@@@@@XXXXXXXXXXXXXXooooooo+++++++&&&&&&&&&&&&&&&&&&&&&&&&&&&&&",
"&&&&&&&&&&&&&&&&&&&&+++++++$$$$$$$##############@@@@@@@XXXXXXXXXXXXXXooooooo+++++++&&&&&&&&&&&&&&&&&&&&&&&&&&&&&",
"&&&&&&&&&&&&&&&&&&&&+++++++$$$$$$$##############@@@@@@@XXXXXXXXXXXXXXooooooo+++++++&&&&&&&&&&&&&&&&&&&&&&&&&&&&&",
"&&&&&&&&&&&&&&&&&&&&+++++++$$$$$$$##############@@@@@@@XXXXXXXXXXXXXXooooooo+++++++&&&&&&&&&&&&&&&&&&&&&&&&&&&&&",
"&&&&&&&&&&&&&&&&&&&&+++++++##############@@@@@@@------->>>>>>>>>>>>>>>>>>>>>+++++++&&&&&&&&&&&&&&&&&&&&&&&&&&&&&",
"&&&&&&&&&&&&&&&&&&&&+++++++##############@@@@@@@------->>>>>>>>>>>>>>>>>>>>>+++++++&&&&&&&&&&&&&&&&&&&&&&&&&&&&&",
"&&&&&&&&&&&&&&&&&&&&+++++++##############@@@@@@@------->>>>>>>>>>>>>>>>>>>>>+++++++&&&&&&&&&&&&&&&&&&&&&&&&&&&&&",
"&&&&&&&&&&&&&&&&&&&&+++++++##############@@@@@@@------->>>>>>>>>>>>>>>>>>>>>+++++++&&&&&&&&&&&&&&&&&&&&&&&&&&&&&",
"&&&&&&&&&&&&&&&&&&&&+++++++##############@@@@@@@------->>>>>>>>>>>>>>>>>>>>>+++++++&&&&&&&&&&&&&&&&&&&&&&&&&&&&&",
"&&&&&&&&&&&&&&&&&&&&+++++++##############@@@@@@@------->>>>>>>>>>>>>>>>>>>>>+++++++&&&&&&&&&&&&&&&&&&&&&&&&&&&&&",
"&&&&&&&&&&&&&&&&&&&&+++++++##############@@@@@@@------->>>>>>>>>>>>>>>>>>>>>+++++++&&&&&&&&&&&&&&&&&&&&&&&&&&&&&",
"&&&&&&&&&&&&&&&&&&&&+++++++@@@@@@@@@@@@@@=======>>>>>>>>>>>>>>>>>>>>>,,,,,,,+++++++&&&&&&&&&&&&&&&&&&&&&&&&&&&&&",
"&&&&&&&&&&&&&&&&&&&&+++++++@@@@@@@@@@@@@@=======>>>>>>>>>>>>>>>>>>>>>,,,,,,,+++++++&&&&&&&&&&&&&&&&&&&&&&&&&&&&&",
"&&&&&&&&&&&&&&&&&&&&+++++++@@@@@@@@@@@@@@=======>>>>>>>>>>>>>>>>>>>>>,,,,,,,+++++++&&&&&&&&&&&&&&&&&&&&&&&&&&&&&",
"&&&&&&&&&&&&&&&&&&&&+++++++@@@@@@@@@@@@@@=======>>>>>>>>>>>>>>>>>>>>>,,,,,,,+++++++&&&&&&&&&&&&&&&&&&&&&&&&&&&&&",
"&&&&&&&&&&&&&&&&&&&&+++++++@@@@@@@@@@@@@@=======>>>>>>>>>>>>>>>>>>>>>,,,,,,,+++++++&&&&&&&&&&&&&&&&&&&&&&&&&&&&&",
"&&&&&&&&&&&&&&&&&&&&+++++++@@@@@@@@@@@@@@=======>>>>>>>>>>>>>>>>>>>>>,,,,,,,+++++++&&&&&&&&&&&&&&&&&&&&&&&&&&&&&",
"&&&&&&&&&&&&&&&&&&&&+++++++@@@@@@@@@@@@@@=======>>>>>>>>>>>>>>>>>>>>>,,,,,,,+++++++&&&&&&&&&&&&&&&&&&&&&&&&&&&&&",
"&&&&&&&&&&&&&&&&&&&&+++++++@@@@@@@*******>>>>>>>,,,,,,,,,,,,,,,,,,,,,,,,,,,,+++++++&&&&&&&&&&&&&&&&&&&&&&&&&&&&&",
"&&&&&&&&&&&&&&&&&&&&+++++++@@@@@@@*******>>>>>>>,,,,,,,,,,,,,,,,,,,,,,,,,,,,+++++++&&&&&&&&&&&&&&&&&&&&&&&&&&&&&",
"&&&&&&&&&&&&&&&&&&&&+++++++@@@@@@@*******>>>>>>>,,,,,,,,,,,,,,,,,,,,,,,,,,,,+++++++&&&&&&&&&&&&&&&&&&&&&&&&&&&&&",
"&&&&&&&&&&&&&&&&&&&&+++++++@@@@@@@*******>>>>>>>,,,,,,,,,,,,,,,,,,,,,,,,,,,,+++++++&&&&&&&&&&&&&&&&&&&&&&&&&&&&&",
"&&&&&&&&&&&&&&&&&&&&+++++++@@@@@@@*******>>>>>>>,,,,,,,,,,,,,,,,,,,,,,,,,,,,+++++++&&&&&&&&&&&&&&&&&&&&&&&&&&&&&",
"&&&&&&&&&&&&&&&&&&&&+++++++@@@@@@@*******>>>>>>>,,,,,,,,,,,,,,,,,,,,,,,,,,,,+++++++&&&&&&&&&&&&&&&&&&&&&&&&&&&&&",
"&&&&&&&&&&&&&&&&&&&&+++++++@@@@@@@*******>>>>>>>,,,,,,,,,,,,,,,,,,,,,,,,,,,,+++++++&&&&&&&&&&&&&&&&&&&&&&&&&&&&&",
"&&&&&&&&&&&&&&&&&&&&+++++++@@@@@@@*******XXXXXXX++++++++++++++XXXXXXXXXXXXXX+++++++&&&&&&&&&&&&&&&&&&&&&&&&&&&&&",
"&&&&&&&&&&&&&&&&&&&&+++++++@@@@@@@*******XXXXXXX++++++++++++++XXXXXXXXXXXXXX+++++++&&&&&&&&&&&&&&&&&&&&&&&&&&&&&",
"&&&&&&&&&&&&&&&&&&&&+++++++@@@@@@@*******XXXXXXX++++++++++++++XXXXXXXXXXXXXX+++++++&&&&&&&&&&&&&&&&&&&&&&&&&&&&&",
"&&&&&&&&&&&&&&&&&&&&+++++++@@@@@@@*******XXXXXXX++++++++++++++XXXXXXXXXXXXXX+++++++&&&&&&&&&&&&&&&&&&&&&&&&&&&&&",
"&&&&&&&&&&&&&&&&&&&&+++++++@@@@@@@*******XXXXXXX++++++++++++++XXXXXXXXXXXXXX+++++++&&&&&&&&&&&&&&&&&&&&&&&&&&&&&",
"&&&&&&&&&&&&&&&&&&&&+++++++@@@@@@@*******XXXXXXX++++++++++++++XXXXXXXXXXXXXX+++++++&&&&&&&&&&&&&&&&&&&&&&&&&&&&&",
"&&&&&&&&&&&&&&&&&&&&+++++++@@@@@@@*******XXXXXXX++++++++++++++XXXXXXXXXXXXXX+++++++&&&&&&&&&&&&&&&&&&&&&&&&&&&&&",
"&&&&&&&&&&&&&&&&&&&&&&&&&&&+++++++++++++++++++++&&&&&&&&&&&&&&++++++++++++++&&&&&&&&&&&&&&&&&&&&&&&&&&&&&&&&&&&&",
"&&&&&&&&&&&&&&&&&&&&&&&&&&&+++++++++++++++++++++&&&&&&&&&&&&&&++++++++++++++&&&&&&&&&&&&&&&&&&&&&&&&&&&&&&&&&&&&",
"&&&&&&&&&&&&&&&&&&&&&&&&&&&+++++++++++++++++++++&&&&&&&&&&&&&&++++++++++++++&&&&&&&&&&&&&&&&&&&&&&&&&&&&&&&&&&&&",
"&&&&&&&&&&&&&&&&&&&&&&&&&&&+++++++++++++++++++++&&&&&&&&&&&&&&++++++++++++++&&&&&&&&&&&&&&&&&&&&&&&&&&&&&&&&&&&&",
"&&&&&&&&&&&&&&&&&&&&&&&&&&&+++++++++++++++++++++&&&&&&&&&&&&&&++++++++++++++&&&&&&&&&&&&&&&&&&&&&&&&&&&&&&&&&&&&",
"&&&&&&&&&&&&&&&&&&&&&&&&&&&+++++++++++++++++++++&&&&&&&&&&&&&&++++++++++++++&&&&&&&&&&&&&&&&&&&&&&&&&&&&&&&&&&&&",
"&&&&&&&&&&&&&&&&&&&&&&&&&&&+++++++++++++++++++++&&&&&&&&&&&&&&++++++++++++++&&&&&&&&&&&&&&&&&&&&&&&&&&&&&&&&&&&&",
"&&&&&&&&&&&&&&&&&&&&&&&&&&&&&&&&&&&&&&&&&&&&&&&&&&&&&&&&&&&&&&&&&&&&&&&&&&&&&&&&&&&&&&&&&&&&&&&&&&&&&&&&&&&&&&&&",
"&&&&&&&&&&&&&&&&&&&&&&&&&&&&&&&&&&&&&&&&&&&&&&&&&&&&&&&&&&&&&&&&&&&&&&&&&&&&&&&&&&&&&&&&&&&&&&&&&&&&&&&&&&&&&&&&",
"&&&&&&&&&&&&&&&&&&&&&&&&&&&&&&&&&&&&&&&&&&&&&&&&&&&&&&&&&&&&&&&&&&&&&&&&&&&&&&&&&&&&&&&&&&&&&&&&&&&&&&&&&&&&&&&&",
"&&&&&&&&&&&&&&&&&&&&&&&&&&&&&&&&&&&&&&&&&&&&&&&&&&&&&&&&&&&&&&&&&&&&&&&&&&&&&&&&&&&&&&&&&&&&&&&&&&&&&&&&&&&&&&&&",
"&&&&&&&&&&&&&&&&&&&&&&&&&&&&&&&&&&&&&&&&&&&&&&&&&&&&&&&&&&&&&&&&&&&&&&&&&&&&&&&&&&&&&&&&&&&&&&&&&&&&&&&&&&&&&&&&",
"&&&&&&&&&&&&&&&&&&&&&&&&&&&&&&&&&&&&&&&&&&&&&&&&&&&&&&&&&&&&&&&&&&&&&&&&&&&&&&&&&&&&&&&&&&&&&&&&&&&&&&&&&&&&&&&&",
"&&&&&&&&&&&&&&&&&&&&&&&&&&&&&&&&&&&&&&&&&&&&&&&&&&&&&&&&&&&&&&&&&&&&&&&&&&&&&&&&&&&&&&&&&&&&&&&&&&&&&&&&&&&&&&&&",
"&&&&&&&&&&&&&&&&&&&&&&&&&&&&&&&&&&&&&&&&&&&&&&&&&&&&&&&&&&&&&&&&&&&&&&&&&&&&&&&&&&&&&&&&&&&&&&&&&&&&&&&&&&&&&&&&",
"&&&&&&&&&&&&&&&&&&&&&&&&&&&&&&&&&&&&&&&&&&&&&&&&&&&&&&&&&&&&&&&&&&&&&&&&&&&&&&&&&&&&&&&&&&&&&&&&&&&&&&&&&&&&&&&&"
};
