/* XPM */
static char *dbc971cea0604f19bad5398d3c51b060ixoSxwtCO79PwAX5[] = {
/* columns rows colors chars-per-pixel */
"112 112 6 1 ",
"  c #B86F50",
". c #BDA931",
"X c #D7C450",
"o c #E0CB50",
"O c #FEDB61",
"+ c #FFF098",
/* pixels */
"                                                                                                                ",
"                                                                                                                ",
"                                                                                                                ",
"                                                                                                                ",
"                                                                                                                ",
"                                                                                                                ",
"                                                                                                                ",
"                                                                                                                ",
"                                                                                                                ",
"                                                                                                                ",
"                                                                                                                ",
"                                          XXXXXXXXXXXXXXXXXXXXX.......                                          ",
"                                          XXXXXXXXXXXXXXXXXXXXX.......                                          ",
"                                          XXXXXXXXXXXXXXXXXXXXX.......                                          ",
"                                          XXXXXXXXXXXXXXXXXXXXX.......                                          ",
"                                          XXXXXXXXXXXXXXXXXXXXX.......                                          ",
"                                          XXXXXXXXXXXXXXXXXXXXX.......                                          ",
"                                          XXXXXXXXXXXXXXXXXXXXX.......                                          ",
"                            XXXXXXXXXXXXXX++++++++++++++++++++++++++++..............                            ",
"                            XXXXXXXXXXXXXX++++++++++++++++++++++++++++..............                            ",
"                            XXXXXXXXXXXXXX++++++++++++++++++++++++++++..............                            ",
"                            XXXXXXXXXXXXXX++++++++++++++++++++++++++++..............                            ",
"                            XXXXXXXXXXXXXX++++++++++++++++++++++++++++..............                            ",
"                            XXXXXXXXXXXXXX++++++++++++++++++++++++++++..............                            ",
"                            XXXXXXXXXXXXXX++++++++++++++++++++++++++++..............                            ",
"                     XXXXXXX+++++++OOOOOOOOOOOOOOOOOOOOOOOOOOOOOOOOOOOOOOOOOOooooooo.......                     ",
"                     XXXXXXX+++++++OOOOOOOOOOOOOOOOOOOOOOOOOOOOOOOOOOOOOOOOOOooooooo.......                     ",
"                     XXXXXXX+++++++OOOOOOOOOOOOOOOOOOOOOOOOOOOOOOOOOOOOOOOOOOooooooo.......                     ",
"                     XXXXXXX+++++++OOOOOOOOOOOOOOOOOOOOOOOOOOOOOOOOOOOOOOOOOOooooooo.......                     ",
"                     XXXXXXX+++++++OOOOOOOOOOOOOOOOOOOOOOOOOOOOOOOOOOOOOOOOOOooooooo.......                     ",
"                     XXXXXXX+++++++OOOOOOOOOOOOOOOOOOOOOOOOOOOOOOOOOOOOOOOOOOooooooo.......                     ",
"                     XXXXXXX+++++++OOOOOOOOOOOOOOOOOOOOOOOOOOOOOOOOOOOOOOOOOOooooooo.......                     ",
"                     XXXXXXXOOOOOOOOOOOOOO++++++++++++++++++++++++++++OOOOOOOOOOOOOO.......                     ",
"                     XXXXXXXOOOOOOOOOOOOOO++++++++++++++++++++++++++++OOOOOOOOOOOOOO.......                     ",
"                     XXXXXXXOOOOOOOOOOOOOO++++++++++++++++++++++++++++OOOOOOOOOOOOOO.......                     ",
"                     XXXXXXXOOOOOOOOOOOOOO++++++++++++++++++++++++++++OOOOOOOOOOOOOO.......                     ",
"                     XXXXXXXOOOOOOOOOOOOOO++++++++++++++++++++++++++++OOOOOOOOOOOOOO.......                     ",
"                     XXXXXXXOOOOOOOOOOOOOO++++++++++++++++++++++++++++OOOOOOOOOOOOOO.......                     ",
"                     XXXXXXXOOOOOOOOOOOOOO++++++++++++++++++++++++++++OOOOOOOOOOOOOO.......                     ",
"              XXXXXXX+++++++OOOOOOO+++++++OOOOOOOOOOOOOOOOOOOOOOOOOOOOoooooooOOOOOOOooooooo.......              ",
"              XXXXXXX+++++++OOOOOOO+++++++OOOOOOOOOOOOOOOOOOOOOOOOOOOOoooooooOOOOOOOooooooo.......              ",
"              XXXXXXX+++++++OOOOOOO+++++++OOOOOOOOOOOOOOOOOOOOOOOOOOOOoooooooOOOOOOOooooooo.......              ",
"              XXXXXXX+++++++OOOOOOO+++++++OOOOOOOOOOOOOOOOOOOOOOOOOOOOoooooooOOOOOOOooooooo.......              ",
"              XXXXXXX+++++++OOOOOOO+++++++OOOOOOOOOOOOOOOOOOOOOOOOOOOOoooooooOOOOOOOooooooo.......              ",
"              XXXXXXX+++++++OOOOOOO+++++++OOOOOOOOOOOOOOOOOOOOOOOOOOOOoooooooOOOOOOOooooooo.......              ",
"              XXXXXXX+++++++OOOOOOO+++++++OOOOOOOOOOOOOOOOOOOOOOOOOOOOoooooooOOOOOOOooooooo.......              ",
"              XXXXXXX+++++++OOOOOOO+++++++OOOOOOOOOOOOOOOOOOOOOOOOOOOOoooooooOOOOOOOooooooo.......              ",
"              XXXXXXX+++++++OOOOOOO+++++++OOOOOOOOOOOOOOOOOOOOOOOOOOOOoooooooOOOOOOOooooooo.......              ",
"              XXXXXXX+++++++OOOOOOO+++++++OOOOOOOOOOOOOOOOOOOOOOOOOOOOoooooooOOOOOOOooooooo.......              ",
"              XXXXXXX+++++++OOOOOOO+++++++OOOOOOOOOOOOOOOOOOOOOOOOOOOOoooooooOOOOOOOooooooo.......              ",
"              XXXXXXX+++++++OOOOOOO+++++++OOOOOOOOOOOOOOOOOOOOOOOOOOOOoooooooOOOOOOOooooooo.......              ",
"              XXXXXXX+++++++OOOOOOO+++++++OOOOOOOOOOOOOOOOOOOOOOOOOOOOoooooooOOOOOOOooooooo.......              ",
"              XXXXXXX+++++++OOOOOOO+++++++OOOOOOOOOOOOOOOOOOOOOOOOOOOOoooooooOOOOOOOooooooo.......              ",
"              XXXXXXXOOOOOOOOOOOOOO+++++++OOOOOOOOOOOOOOOOOOOOOOOOOOOOoooooooOOOOOOOooooooo.......              ",
"              XXXXXXXOOOOOOOOOOOOOO+++++++OOOOOOOOOOOOOOOOOOOOOOOOOOOOoooooooOOOOOOOooooooo.......              ",
"              XXXXXXXOOOOOOOOOOOOOO+++++++OOOOOOOOOOOOOOOOOOOOOOOOOOOOoooooooOOOOOOOooooooo.......              ",
"              XXXXXXXOOOOOOOOOOOOOO+++++++OOOOOOOOOOOOOOOOOOOOOOOOOOOOoooooooOOOOOOOooooooo.......              ",
"              XXXXXXXOOOOOOOOOOOOOO+++++++OOOOOOOOOOOOOOOOOOOOOOOOOOOOoooooooOOOOOOOooooooo.......              ",
"              XXXXXXXOOOOOOOOOOOOOO+++++++OOOOOOOOOOOOOOOOOOOOOOOOOOOOoooooooOOOOOOOooooooo.......              ",
"              XXXXXXXOOOOOOOOOOOOOO+++++++OOOOOOOOOOOOOOOOOOOOOOOOOOOOoooooooOOOOOOOooooooo.......              ",
"              XXXXXXX+++++++OOOOOOO+++++++OOOOOOOOOOOOOOOOOOOOOOOOOOOOoooooooOOOOOOOooooooo.......              ",
"              XXXXXXX+++++++OOOOOOO+++++++OOOOOOOOOOOOOOOOOOOOOOOOOOOOoooooooOOOOOOOooooooo.......              ",
"              XXXXXXX+++++++OOOOOOO+++++++OOOOOOOOOOOOOOOOOOOOOOOOOOOOoooooooOOOOOOOooooooo.......              ",
"              XXXXXXX+++++++OOOOOOO+++++++OOOOOOOOOOOOOOOOOOOOOOOOOOOOoooooooOOOOOOOooooooo.......              ",
"              XXXXXXX+++++++OOOOOOO+++++++OOOOOOOOOOOOOOOOOOOOOOOOOOOOoooooooOOOOOOOooooooo.......              ",
"              XXXXXXX+++++++OOOOOOO+++++++OOOOOOOOOOOOOOOOOOOOOOOOOOOOoooooooOOOOOOOooooooo.......              ",
"              XXXXXXX+++++++OOOOOOO+++++++OOOOOOOOOOOOOOOOOOOOOOOOOOOOoooooooOOOOOOOooooooo.......              ",
"                     XXXXXXXOOOOOOOOOOOOOOooooooooooooooooooooooooooooOOOOOOOOOOOOOO.......                     ",
"                     XXXXXXXOOOOOOOOOOOOOOooooooooooooooooooooooooooooOOOOOOOOOOOOOO.......                     ",
"                     XXXXXXXOOOOOOOOOOOOOOooooooooooooooooooooooooooooOOOOOOOOOOOOOO.......                     ",
"                     XXXXXXXOOOOOOOOOOOOOOooooooooooooooooooooooooooooOOOOOOOOOOOOOO.......                     ",
"                     XXXXXXXOOOOOOOOOOOOOOooooooooooooooooooooooooooooOOOOOOOOOOOOOO.......                     ",
"                     XXXXXXXOOOOOOOOOOOOOOooooooooooooooooooooooooooooOOOOOOOOOOOOOO.......                     ",
"                     XXXXXXXOOOOOOOOOOOOOOooooooooooooooooooooooooooooOOOOOOOOOOOOOO.......                     ",
"                     .......+++++++OOOOOOOOOOOOOOOOOOOOOOOOOOOOOOOOOOOOOOOOOOooooooo.......                     ",
"                     .......+++++++OOOOOOOOOOOOOOOOOOOOOOOOOOOOOOOOOOOOOOOOOOooooooo.......                     ",
"                     .......+++++++OOOOOOOOOOOOOOOOOOOOOOOOOOOOOOOOOOOOOOOOOOooooooo.......                     ",
"                     .......+++++++OOOOOOOOOOOOOOOOOOOOOOOOOOOOOOOOOOOOOOOOOOooooooo.......                     ",
"                     .......+++++++OOOOOOOOOOOOOOOOOOOOOOOOOOOOOOOOOOOOOOOOOOooooooo.......                     ",
"                     .......+++++++OOOOOOOOOOOOOOOOOOOOOOOOOOOOOOOOOOOOOOOOOOooooooo.......                     ",
"                     .......+++++++OOOOOOOOOOOOOOOOOOOOOOOOOOOOOOOOOOOOOOOOOOooooooo.......                     ",
"                            ..............OOOOOOOooooooooooooooooooooo..............                            ",
"                            ..............OOOOOOOooooooooooooooooooooo..............                            ",
"                            ..............OOOOOOOooooooooooooooooooooo..............                            ",
"                            ..............OOOOOOOooooooooooooooooooooo..............                            ",
"                            ..............OOOOOOOooooooooooooooooooooo..............                            ",
"                            ..............OOOOOOOooooooooooooooooooooo..............                            ",
"                            ..............OOOOOOOooooooooooooooooooooo..............                            ",
"                                          ............................                                          ",
"                                          ............................                                          ",
"                                          ............................                                          ",
"                                          ............................                                          ",
"                                          ............................                                          ",
"                                          ............................                                          ",
"                                          ............................                                          ",
"                                                                                                                ",
"                                                                                                                ",
"                                                                                                                ",
"                                                                                                                ",
"                                                                                                                ",
"                                                                                                                ",
"                                                                                                                ",
"                                                                                                                ",
"                                                                                                                ",
"                                                                                                                ",
"                                                                                                                ",
"                                                                                                                ",
"                                                                                                                ",
"                                                                                                                ",
"                                                                                                                ",
"                                                                                                                ",
"                                                                                                                "
};
