/* XPM */
static char *f872fcf2bf074d02ce483c982550b3fbXRZwApU9KxG0HE5K[] = {
/* columns rows colors chars-per-pixel */
"112 112 30 1 ",
"  c #230E0B",
". c #23141B",
"X c #4B241F",
"o c #4F241E",
"O c #4E3D32",
"+ c #652F28",
"@ c #5C4438",
"# c #706251",
"$ c #7B6856",
"% c #B86F50",
"& c #94856E",
"* c #E5CD45",
"= c #EAD660",
"- c #EEDD76",
"; c #FEE761",
": c #FEEB77",
"> c #667388",
", c #6C798D",
"< c #A89C81",
"1 c #8B9BB4",
"2 c #F1E388",
"3 c #FEEE88",
"4 c #F3E896",
"5 c #FEF196",
"6 c #FFF19D",
"7 c #A2B0C6",
"8 c #B4BFC8",
"9 c #C0CBDC",
"0 c #CCD5DB",
"q c #D6DDDA",
/* pixels */
"%%%%%%%%%%%%%%%%%%%%%%%%%%%%%%%%%%%%%%%%%%%%%%%%%%%%%%%%%%%%%%%%%%%%%%%%%%%%%%%%%%%%%%%%%%%%%%%%%%%%%%%%%%%%%%%%",
"%%%%%%%%%%%%%%%%%%%%%%%%%%%%%%%%%%%%%%%%%%%%%%%%%%%%%%%%%%%%%%%%%%%%%%%%%%%%%%%%%%%%%%%%%%%%%%%%%%%%%%%%%%%%%%%%",
"%%%%%%%%%%%%%%%%%%%%%%%%%%%%%%%%%%%%%%%%%%%%%%%%%%%%%%%%%%%%%%%%%%%%%%%%%%%%%%%%%%%%%%%%%%%%%%%%%%%%%%%%%%%%%%%%",
"%%%%%%%%%%%%%%%%%%%%%%%%%%%%%%%%%%%%%%%%%%%%%%%%%%%%%%%%%%%%%%%%%%%%%%%%%%%%%%%%%%%%%%%%%%%%%%%%%%%%%%%%%%%%%%%%",
"%%%%%%%%%%%%%%%%%%%%%%%%%%%%%%%%%%%%%%%%%%%%%%%%%%%%%%%%%%%%%%%%%%%%%%%%%%%%%%%%%%%%%%%%%%%%%%%%%%%%%%%%%%%%%%%%",
"%%%%%%%%%%%%%%%%%%%%%%%%%%%%%%%%%%%%%%%%%%%%%%%%%%%%%%%%%%%%%%%%%%%%%%%%%%%%%%%%%%%%%%%%%%%%%%%%%%%%%%%%%%%%%%%%",
"%%%%%%%%%%%%%%%%%%%%%%%%%%%%%%%%%%%%%%%%%%%%%%%%%%%%%%%%%%%%%%%%%%%%%%%%%%%%%%%%%%%%%%%%%%%%%%%%%%%%%%%%%%%%%%%%",
"%%%%%%%%%%%%%%%%%%%%%%%%%%%%%%%%%%%%%%%%%%%%%%%%%%%%%%%%%%%%%%%%%%%%%%%%%%%%%%%%%%%%%%%%%%%%%%%%%%%%%%%%%%%%%%%%",
"%%%%%%%%%%%%%%%%%%%%%%%%%%%%%%%%%%%%%%%%%%%%%%%%%%%%%%%%%%%%%%%%%%%%%%%%%%%%%%%%%%%%%%%%%%%%%%%%%%%%%%%%%%%%%%%%",
"%%%%%%%%%%%%%%%%%%%%%%%%%%%%%%%%%%%%%%%%%%%%%%%%%%%%%%%%%%%%%%%%%%%%%%%%%%%%%%%%%%%%%%%%%%%%%%%%%%%%%%%%%%%%%%%%",
"%%%%%%%%%%%%%%%%%%%%%%%%%%%%%%%%%%%%%%%%%%%%%%%%%%%%%%%%%%%%%%%%%%%%%%%%%%%%%%%%%%%%%%%%%%%%%%%%%%%%%%%%%%%%%%%%",
"%%%%%%%%%%%%%%%%%%%%%%%%%%%%%%%%%%%%%%%%%%%%%%%%%%%%%%%%%%%%%%%%%%%%%%%%%%%%%%%%%%%%%%%%%%%%%%%%%%%%%%%%%%%%%%%%",
"%%%%%%%%%%%%%%%%%%%%%%%%%%%%%%%%%%%%%%%%%%%%%%%%%%%%%%%%%%%%%%%%%%%%%%%%%%%%%%%%%%%%%%%%%%%%%%%%%%%%%%%%%%%%%%%%",
"%%%%%%%%%%%%%%%%%%%%%%%%%%%%%%%%%%%%%%%%%%%%%%%%%%%%%%%%%%%%%%%%%%%%%%%%%%%%%%%%%%%%%%%%%%%%%%%%%%%%%%%%%%%%%%%%",
"%%%%%%%%%%%%%%%%%%%%%%%%%%%%%%%%%%%%%%%%%%%%%%%%%%%%%%%%%%%%%%%%%%%%%%%%%%%%%%%%%%%%%%%%%%%%%%%%%%%%%%%%%%%%%%%%",
"%%%%%%%%%%%%%%%%%%%%%%%%%%%%%%%%%%%%%%%%%%%%%%%%%%%%%%%%%%%%%%%%%%%%%%%%%%%%%%%%%%%%%%%%%%%%%%%%%%%%%%%%%%%%%%%%",
"%%%%%%%%%%%%%%%%%%%%%%%%%%%%%%%%%%%%%%%%%%%%%%%%%%%%%%%%%%%%%%%%%%%%%%%%%%%%%%%%%%%%%%%%%%%%%%%%%%%%%%%%%%%%%%%%",
"%%%%%%%%%%%%%%%%%%%%%%%%%%%%%%%%%%%%%%%%%%%%%%%%%%%%%%%%%%%%%%%%%%%%%%%%%%%%%%%%%%%%%%%%%%%%%%%%%%%%%%%%%%%%%%%%",
"%%%%%%%%%%%%%%%%%%%%%%%%%%%%%%%%%%%%%%%%%%%%%%%%%%%%%%%%%%%%%%%%%%%%%%%%%%%%%%%%%%%%%%%%%%%%%%%%%%%%%%%%%%%%%%%%",
"%%%%%%%%%%%%%%%%%%%%%%%%%%%%%%%%%%%%%%%%%%%%%%%%%%%%%%%%%%%%%%%%%%%%%%%%%%%%%%%%%%%%%%%%%%%%%%%%%%%%%%%%%%%%%%%%",
"%%%%%%%%%%%%%%%%%%%%%%%%%%%%%%%%%%%%%%%%%%%%%%%%%%%%%%%%%%%%%%%%%%%%%%%%%%%%%%%%%%%%%%%%%%%%%%%%%%%%%%%%%%%%%%%%",
"%%%%%%%%%%%%%%%%%%%%.....................66666666666666;;;;;;;*******.....................%%%%%%%%%%%%%%%%%%%%%%",
"%%%%%%%%%%%%%%%%%%%%.....................66666666666666;;;;;;;*******.....................%%%%%%%%%%%%%%%%%%%%%%",
"%%%%%%%%%%%%%%%%%%%%.....................66666666666666;;;;;;;*******.....................%%%%%%%%%%%%%%%%%%%%%%",
"%%%%%%%%%%%%%%%%%%%%.....................66666666666666;;;;;;;*******.....................%%%%%%%%%%%%%%%%%%%%%%",
"%%%%%%%%%%%%%%%%%%%%.....................66666666666666;;;;;;;*******.....................%%%%%%%%%%%%%%%%%%%%%%",
"%%%%%%%%%%%%%%%%%%%%.....................66666666666666;;;;;;;*******.....................%%%%%%%%%%%%%%%%%%%%%%",
"%%%%%%%%%%%%%%%%%%%%.....................66666666666666;;;;;;;*******.....................%%%%%%%%%%%%%%%%%%%%%%",
"%%%%%%%%%%%%%.......                            **************                            .......%%%%%%%%%%%%%%%",
"%%%%%%%%%%%%%.......                            **************                            .......%%%%%%%%%%%%%%%",
"%%%%%%%%%%%%%.......                            **************                            .......%%%%%%%%%%%%%%%",
"%%%%%%%%%%%%%.......                            **************                            .......%%%%%%%%%%%%%%%",
"%%%%%%%%%%%%%.......                            **************                            .......%%%%%%%%%%%%%%%",
"%%%%%%%%%%%%%.......                            **************                            .......%%%%%%%%%%%%%%%",
"%%%%%%%%%%%%%.......                            **************                            .......%%%%%%%%%%%%%%%",
"%%%%%%.......                                                                                    .......%%%%%%%%",
"%%%%%%.......                                                                                    .......%%%%%%%%",
"%%%%%%.......                                                                                    .......%%%%%%%%",
"%%%%%%.......                                                                                    .......%%%%%%%%",
"%%%%%%.......                                                                                    .......%%%%%%%%",
"%%%%%%.......                                                                                    .......%%%%%%%%",
"%%%%%%.......                                                                                    .......%%%%%%%%",
"%%%%%%.......       OOOOOOOOOOOOOOOOOOOOO#######OOOOOOO##############OOOOOOO#######OOOOOOO       .......%%%%%%%%",
"%%%%%%.......       OOOOOOOOOOOOOOOOOOOOO#######OOOOOOO##############OOOOOOO#######OOOOOOO       .......%%%%%%%%",
"%%%%%%.......       OOOOOOOOOOOOOOOOOOOOO#######OOOOOOO##############OOOOOOO#######OOOOOOO       .......%%%%%%%%",
"%%%%%%.......       OOOOOOOOOOOOOOOOOOOOO#######OOOOOOO##############OOOOOOO#######OOOOOOO       .......%%%%%%%%",
"%%%%%%.......       OOOOOOOOOOOOOOOOOOOOO#######OOOOOOO##############OOOOOOO#######OOOOOOO       .......%%%%%%%%",
"%%%%%%.......       OOOOOOOOOOOOOOOOOOOOO#######OOOOOOO##############OOOOOOO#######OOOOOOO       .......%%%%%%%%",
"%%%%%%.......       OOOOOOOOOOOOOOOOOOOOO#######OOOOOOO##############OOOOOOO#######OOOOOOO       .......%%%%%%%%",
"%%%%%%.......@@@@@@@@@@@@@@$$$$$$$&&&&&&&$$$$$$$<<<<<<<&&&&&&&&&&&&&&<<<<<<<$$$$$$$$$$$$$$@@@@@@@.......%%%%%%%%",
"%%%%%%.......@@@@@@@@@@@@@@$$$$$$$&&&&&&&$$$$$$$<<<<<<<&&&&&&&&&&&&&&<<<<<<<$$$$$$$$$$$$$$@@@@@@@.......%%%%%%%%",
"%%%%%%.......@@@@@@@@@@@@@@$$$$$$$&&&&&&&$$$$$$$<<<<<<<&&&&&&&&&&&&&&<<<<<<<$$$$$$$$$$$$$$@@@@@@@.......%%%%%%%%",
"%%%%%%.......@@@@@@@@@@@@@@$$$$$$$&&&&&&&$$$$$$$<<<<<<<&&&&&&&&&&&&&&<<<<<<<$$$$$$$$$$$$$$@@@@@@@.......%%%%%%%%",
"%%%%%%.......@@@@@@@@@@@@@@$$$$$$$&&&&&&&$$$$$$$<<<<<<<&&&&&&&&&&&&&&<<<<<<<$$$$$$$$$$$$$$@@@@@@@.......%%%%%%%%",
"%%%%%%.......@@@@@@@@@@@@@@$$$$$$$&&&&&&&$$$$$$$<<<<<<<&&&&&&&&&&&&&&<<<<<<<$$$$$$$$$$$$$$@@@@@@@.......%%%%%%%%",
"%%%%%%.......@@@@@@@@@@@@@@$$$$$$$&&&&&&&$$$$$$$<<<<<<<&&&&&&&&&&&&&&<<<<<<<$$$$$$$$$$$$$$@@@@@@@.......%%%%%%%%",
"%%%%%%.......@@@@@@@=======33333332222222$$$$$$$444444455555552222222<<<<<<<33333333333333@@@@@@@.......%%%%%%%%",
"%%%%%%.......@@@@@@@=======33333332222222$$$$$$$444444455555552222222<<<<<<<33333333333333@@@@@@@.......%%%%%%%%",
"%%%%%%.......@@@@@@@=======33333332222222$$$$$$$444444455555552222222<<<<<<<33333333333333@@@@@@@.......%%%%%%%%",
"%%%%%%.......@@@@@@@=======33333332222222$$$$$$$444444455555552222222<<<<<<<33333333333333@@@@@@@.......%%%%%%%%",
"%%%%%%.......@@@@@@@=======33333332222222$$$$$$$444444455555552222222<<<<<<<33333333333333@@@@@@@.......%%%%%%%%",
"%%%%%%.......@@@@@@@=======33333332222222$$$$$$$444444455555552222222<<<<<<<33333333333333@@@@@@@.......%%%%%%%%",
"%%%%%%.......@@@@@@@=======33333332222222$$$$$$$444444455555552222222<<<<<<<33333333333333@@@@@@@.......%%%%%%%%",
"%%%%%%7777777999999988888880000000:::::::-------:::::::3333333-------=======qqqqqqq888888899999997777777%%%%%%%%",
"%%%%%%7777777999999988888880000000:::::::-------:::::::3333333-------=======qqqqqqq888888899999997777777%%%%%%%%",
"%%%%%%7777777999999988888880000000:::::::-------:::::::3333333-------=======qqqqqqq888888899999997777777%%%%%%%%",
"%%%%%%7777777999999988888880000000:::::::-------:::::::3333333-------=======qqqqqqq888888899999997777777%%%%%%%%",
"%%%%%%7777777999999988888880000000:::::::-------:::::::3333333-------=======qqqqqqq888888899999997777777%%%%%%%%",
"%%%%%%7777777999999988888880000000:::::::-------:::::::3333333-------=======qqqqqqq888888899999997777777%%%%%%%%",
"%%%%%%7777777999999988888880000000:::::::-------:::::::3333333-------=======qqqqqqq888888899999997777777%%%%%%%%",
"%%%%%%.......>>>>>>>>>>>>>>ooooooo999999999999997777777777777799999999999999ooooooo>>>>>>>>>>>>>>.......%%%%%%%%",
"%%%%%%.......>>>>>>>>>>>>>>ooooooo999999999999997777777777777799999999999999ooooooo>>>>>>>>>>>>>>.......%%%%%%%%",
"%%%%%%.......>>>>>>>>>>>>>>ooooooo999999999999997777777777777799999999999999ooooooo>>>>>>>>>>>>>>.......%%%%%%%%",
"%%%%%%.......>>>>>>>>>>>>>>ooooooo999999999999997777777777777799999999999999ooooooo>>>>>>>>>>>>>>.......%%%%%%%%",
"%%%%%%.......>>>>>>>>>>>>>>ooooooo999999999999997777777777777799999999999999ooooooo>>>>>>>>>>>>>>.......%%%%%%%%",
"%%%%%%.......>>>>>>>>>>>>>>ooooooo999999999999997777777777777799999999999999ooooooo>>>>>>>>>>>>>>.......%%%%%%%%",
"%%%%%%.......>>>>>>>>>>>>>>ooooooo999999999999997777777777777799999999999999ooooooo>>>>>>>>>>>>>>.......%%%%%%%%",
"%%%%%%.......11111111111111+++++++oooooooooooooooooooooooooooooooooooooooooo+++++++11111111111111.......%%%%%%%%",
"%%%%%%.......11111111111111+++++++oooooooooooooooooooooooooooooooooooooooooo+++++++11111111111111.......%%%%%%%%",
"%%%%%%.......11111111111111+++++++oooooooooooooooooooooooooooooooooooooooooo+++++++11111111111111.......%%%%%%%%",
"%%%%%%.......11111111111111+++++++oooooooooooooooooooooooooooooooooooooooooo+++++++11111111111111.......%%%%%%%%",
"%%%%%%.......11111111111111+++++++oooooooooooooooooooooooooooooooooooooooooo+++++++11111111111111.......%%%%%%%%",
"%%%%%%.......11111111111111+++++++oooooooooooooooooooooooooooooooooooooooooo+++++++11111111111111.......%%%%%%%%",
"%%%%%%.......11111111111111+++++++oooooooooooooooooooooooooooooooooooooooooo+++++++11111111111111.......%%%%%%%%",
"%%%%%%.......11111111111111++++++++++++++++++++++++++++++++++++++++++++++++++++++++11111111111111.......%%%%%%%%",
"%%%%%%.......11111111111111++++++++++++++++++++++++++++++++++++++++++++++++++++++++11111111111111.......%%%%%%%%",
"%%%%%%.......11111111111111++++++++++++++++++++++++++++++++++++++++++++++++++++++++11111111111111.......%%%%%%%%",
"%%%%%%.......11111111111111++++++++++++++++++++++++++++++++++++++++++++++++++++++++11111111111111.......%%%%%%%%",
"%%%%%%.......11111111111111++++++++++++++++++++++++++++++++++++++++++++++++++++++++11111111111111.......%%%%%%%%",
"%%%%%%.......11111111111111++++++++++++++++++++++++++++++++++++++++++++++++++++++++11111111111111.......%%%%%%%%",
"%%%%%%.......11111111111111++++++++++++++++++++++++++++++++++++++++++++++++++++++++11111111111111.......%%%%%%%%",
"%%%%%%.......,,,,,,,,,,,,,,XXXXXXX++++++++++++++++++++++++++++++++++++++++++XXXXXXX,,,,,,,,,,,,,,.......%%%%%%%%",
"%%%%%%.......,,,,,,,,,,,,,,XXXXXXX++++++++++++++++++++++++++++++++++++++++++XXXXXXX,,,,,,,,,,,,,,.......%%%%%%%%",
"%%%%%%.......,,,,,,,,,,,,,,XXXXXXX++++++++++++++++++++++++++++++++++++++++++XXXXXXX,,,,,,,,,,,,,,.......%%%%%%%%",
"%%%%%%.......,,,,,,,,,,,,,,XXXXXXX++++++++++++++++++++++++++++++++++++++++++XXXXXXX,,,,,,,,,,,,,,.......%%%%%%%%",
"%%%%%%.......,,,,,,,,,,,,,,XXXXXXX++++++++++++++++++++++++++++++++++++++++++XXXXXXX,,,,,,,,,,,,,,.......%%%%%%%%",
"%%%%%%.......,,,,,,,,,,,,,,XXXXXXX++++++++++++++++++++++++++++++++++++++++++XXXXXXX,,,,,,,,,,,,,,.......%%%%%%%%",
"%%%%%%.......,,,,,,,,,,,,,,XXXXXXX++++++++++++++++++++++++++++++++++++++++++XXXXXXX,,,,,,,,,,,,,,.......%%%%%%%%",
"%%%%%%%%%%%%%....................................................................................%%%%%%%%%%%%%%%",
"%%%%%%%%%%%%%....................................................................................%%%%%%%%%%%%%%%",
"%%%%%%%%%%%%%....................................................................................%%%%%%%%%%%%%%%",
"%%%%%%%%%%%%%....................................................................................%%%%%%%%%%%%%%%",
"%%%%%%%%%%%%%....................................................................................%%%%%%%%%%%%%%%",
"%%%%%%%%%%%%%....................................................................................%%%%%%%%%%%%%%%",
"%%%%%%%%%%%%%....................................................................................%%%%%%%%%%%%%%%",
"%%%%%%%%%%%%%%%%%%%%%%%%%%%%%%%%%%%%%%%%%%%%%%%%%%%%%%%%%%%%%%%%%%%%%%%%%%%%%%%%%%%%%%%%%%%%%%%%%%%%%%%%%%%%%%%%",
"%%%%%%%%%%%%%%%%%%%%%%%%%%%%%%%%%%%%%%%%%%%%%%%%%%%%%%%%%%%%%%%%%%%%%%%%%%%%%%%%%%%%%%%%%%%%%%%%%%%%%%%%%%%%%%%%",
"%%%%%%%%%%%%%%%%%%%%%%%%%%%%%%%%%%%%%%%%%%%%%%%%%%%%%%%%%%%%%%%%%%%%%%%%%%%%%%%%%%%%%%%%%%%%%%%%%%%%%%%%%%%%%%%%",
"%%%%%%%%%%%%%%%%%%%%%%%%%%%%%%%%%%%%%%%%%%%%%%%%%%%%%%%%%%%%%%%%%%%%%%%%%%%%%%%%%%%%%%%%%%%%%%%%%%%%%%%%%%%%%%%%",
"%%%%%%%%%%%%%%%%%%%%%%%%%%%%%%%%%%%%%%%%%%%%%%%%%%%%%%%%%%%%%%%%%%%%%%%%%%%%%%%%%%%%%%%%%%%%%%%%%%%%%%%%%%%%%%%%",
"%%%%%%%%%%%%%%%%%%%%%%%%%%%%%%%%%%%%%%%%%%%%%%%%%%%%%%%%%%%%%%%%%%%%%%%%%%%%%%%%%%%%%%%%%%%%%%%%%%%%%%%%%%%%%%%%",
"%%%%%%%%%%%%%%%%%%%%%%%%%%%%%%%%%%%%%%%%%%%%%%%%%%%%%%%%%%%%%%%%%%%%%%%%%%%%%%%%%%%%%%%%%%%%%%%%%%%%%%%%%%%%%%%%"
};
