/* XPM */
static char *_43a80ffd4ca40e8ae10870f2738a8e7bUe2jCgdXDh6p2MV[] = {
/* columns rows colors chars-per-pixel */
"112 112 6 1 ",
"  c #42466E",
". c #394080",
"X c #545884",
"o c #4D5495",
"O c #636684",
"+ c #7C7F9E",
/* pixels */
"......................................................................oooooooooooooo............................",
"......................................................................oooooooooooooo............................",
"......................................................................oooooooooooooo............................",
"......................................................................oooooooooooooo............................",
"......................................................................oooooooooooooo............................",
"......................................................................oooooooooooooo............................",
"......................................................................oooooooooooooo............................",
"+++++++++++++++++++++.......++++++++++++++++++++++++++++++++++++++++++XXXXXXX.......       OOOOOOO++++++++++++++",
"+++++++++++++++++++++.......++++++++++++++++++++++++++++++++++++++++++XXXXXXX.......       OOOOOOO++++++++++++++",
"+++++++++++++++++++++.......++++++++++++++++++++++++++++++++++++++++++XXXXXXX.......       OOOOOOO++++++++++++++",
"+++++++++++++++++++++.......++++++++++++++++++++++++++++++++++++++++++XXXXXXX.......       OOOOOOO++++++++++++++",
"+++++++++++++++++++++.......++++++++++++++++++++++++++++++++++++++++++XXXXXXX.......       OOOOOOO++++++++++++++",
"+++++++++++++++++++++.......++++++++++++++++++++++++++++++++++++++++++XXXXXXX.......       OOOOOOO++++++++++++++",
"+++++++++++++++++++++.......++++++++++++++++++++++++++++++++++++++++++XXXXXXX.......       OOOOOOO++++++++++++++",
"OOOOOOOOOOOOOOOOOOOOO.......XXXXXXXXXXXXXXXXXXXXXXXXXXXXXXXXXXXXXXXXXXXXXXXXX.......OOOOOOOOOOOOOOOOOOOOOOOOOOOO",
"OOOOOOOOOOOOOOOOOOOOO.......XXXXXXXXXXXXXXXXXXXXXXXXXXXXXXXXXXXXXXXXXXXXXXXXX.......OOOOOOOOOOOOOOOOOOOOOOOOOOOO",
"OOOOOOOOOOOOOOOOOOOOO.......XXXXXXXXXXXXXXXXXXXXXXXXXXXXXXXXXXXXXXXXXXXXXXXXX.......OOOOOOOOOOOOOOOOOOOOOOOOOOOO",
"OOOOOOOOOOOOOOOOOOOOO.......XXXXXXXXXXXXXXXXXXXXXXXXXXXXXXXXXXXXXXXXXXXXXXXXX.......OOOOOOOOOOOOOOOOOOOOOOOOOOOO",
"OOOOOOOOOOOOOOOOOOOOO.......XXXXXXXXXXXXXXXXXXXXXXXXXXXXXXXXXXXXXXXXXXXXXXXXX.......OOOOOOOOOOOOOOOOOOOOOOOOOOOO",
"OOOOOOOOOOOOOOOOOOOOO.......XXXXXXXXXXXXXXXXXXXXXXXXXXXXXXXXXXXXXXXXXXXXXXXXX.......OOOOOOOOOOOOOOOOOOOOOOOOOOOO",
"OOOOOOOOOOOOOOOOOOOOO.......XXXXXXXXXXXXXXXXXXXXXXXXXXXXXXXXXXXXXXXXXXXXXXXXX.......OOOOOOOOOOOOOOOOOOOOOOOOOOOO",
"OOOOOOO       OOOOOOO.......XXXXXXXXXXXXXXXXXXXXXXXXXXXX       XXXXXXXXXXXXXX.......OOOOOOOOOOOOOOOOOOOOOOOOOOOO",
"OOOOOOO       OOOOOOO.......XXXXXXXXXXXXXXXXXXXXXXXXXXXX       XXXXXXXXXXXXXX.......OOOOOOOOOOOOOOOOOOOOOOOOOOOO",
"OOOOOOO       OOOOOOO.......XXXXXXXXXXXXXXXXXXXXXXXXXXXX       XXXXXXXXXXXXXX.......OOOOOOOOOOOOOOOOOOOOOOOOOOOO",
"OOOOOOO       OOOOOOO.......XXXXXXXXXXXXXXXXXXXXXXXXXXXX       XXXXXXXXXXXXXX.......OOOOOOOOOOOOOOOOOOOOOOOOOOOO",
"OOOOOOO       OOOOOOO.......XXXXXXXXXXXXXXXXXXXXXXXXXXXX       XXXXXXXXXXXXXX.......OOOOOOOOOOOOOOOOOOOOOOOOOOOO",
"OOOOOOO       OOOOOOO.......XXXXXXXXXXXXXXXXXXXXXXXXXXXX       XXXXXXXXXXXXXX.......OOOOOOOOOOOOOOOOOOOOOOOOOOOO",
"OOOOOOO       OOOOOOO.......XXXXXXXXXXXXXXXXXXXXXXXXXXXX       XXXXXXXXXXXXXX.......OOOOOOOOOOOOOOOOOOOOOOOOOOOO",
"ooooooo..............oooooooooooooo......................................................................ooooooo",
"ooooooo..............oooooooooooooo......................................................................ooooooo",
"ooooooo..............oooooooooooooo......................................................................ooooooo",
"ooooooo..............oooooooooooooo......................................................................ooooooo",
"ooooooo..............oooooooooooooo......................................................................ooooooo",
"ooooooo..............oooooooooooooo......................................................................ooooooo",
"ooooooo..............oooooooooooooo......................................................................ooooooo",
"+++++++++++++++++++++++++++++++++++OOOOOOO.......++++++++++++++++++++++++++++XXXXXXX       .......OOOOOOO+++++++",
"+++++++++++++++++++++++++++++++++++OOOOOOO.......++++++++++++++++++++++++++++XXXXXXX       .......OOOOOOO+++++++",
"+++++++++++++++++++++++++++++++++++OOOOOOO.......++++++++++++++++++++++++++++XXXXXXX       .......OOOOOOO+++++++",
"+++++++++++++++++++++++++++++++++++OOOOOOO.......++++++++++++++++++++++++++++XXXXXXX       .......OOOOOOO+++++++",
"+++++++++++++++++++++++++++++++++++OOOOOOO.......++++++++++++++++++++++++++++XXXXXXX       .......OOOOOOO+++++++",
"+++++++++++++++++++++++++++++++++++OOOOOOO.......++++++++++++++++++++++++++++XXXXXXX       .......OOOOOOO+++++++",
"+++++++++++++++++++++++++++++++++++OOOOOOO.......++++++++++++++++++++++++++++XXXXXXX       .......OOOOOOO+++++++",
"OOOOOOOOOOOOOOOOOOOOOOOOOOOOOOOOOOOOOOOOOO.......XXXXXXXXXXXXXXXXXXXXXXXXXXXXXXXXXXXXXXXXXX.......       OOOOOOO",
"OOOOOOOOOOOOOOOOOOOOOOOOOOOOOOOOOOOOOOOOOO.......XXXXXXXXXXXXXXXXXXXXXXXXXXXXXXXXXXXXXXXXXX.......       OOOOOOO",
"OOOOOOOOOOOOOOOOOOOOOOOOOOOOOOOOOOOOOOOOOO.......XXXXXXXXXXXXXXXXXXXXXXXXXXXXXXXXXXXXXXXXXX.......       OOOOOOO",
"OOOOOOOOOOOOOOOOOOOOOOOOOOOOOOOOOOOOOOOOOO.......XXXXXXXXXXXXXXXXXXXXXXXXXXXXXXXXXXXXXXXXXX.......       OOOOOOO",
"OOOOOOOOOOOOOOOOOOOOOOOOOOOOOOOOOOOOOOOOOO.......XXXXXXXXXXXXXXXXXXXXXXXXXXXXXXXXXXXXXXXXXX.......       OOOOOOO",
"OOOOOOOOOOOOOOOOOOOOOOOOOOOOOOOOOOOOOOOOOO.......XXXXXXXXXXXXXXXXXXXXXXXXXXXXXXXXXXXXXXXXXX.......       OOOOOOO",
"OOOOOOOOOOOOOOOOOOOOOOOOOOOOOOOOOOOOOOOOOO.......XXXXXXXXXXXXXXXXXXXXXXXXXXXXXXXXXXXXXXXXXX.......       OOOOOOO",
"OOOOOOOOOOOOOOOOOOOOOOOOOOOO       OOOOOOO.......XXXXXXXXXXXXXXXXXXXXXXXXXXXXXXXXXXXXXXXXXX.......OOOOOOOOOOOOOO",
"OOOOOOOOOOOOOOOOOOOOOOOOOOOO       OOOOOOO.......XXXXXXXXXXXXXXXXXXXXXXXXXXXXXXXXXXXXXXXXXX.......OOOOOOOOOOOOOO",
"OOOOOOOOOOOOOOOOOOOOOOOOOOOO       OOOOOOO.......XXXXXXXXXXXXXXXXXXXXXXXXXXXXXXXXXXXXXXXXXX.......OOOOOOOOOOOOOO",
"OOOOOOOOOOOOOOOOOOOOOOOOOOOO       OOOOOOO.......XXXXXXXXXXXXXXXXXXXXXXXXXXXXXXXXXXXXXXXXXX.......OOOOOOOOOOOOOO",
"OOOOOOOOOOOOOOOOOOOOOOOOOOOO       OOOOOOO.......XXXXXXXXXXXXXXXXXXXXXXXXXXXXXXXXXXXXXXXXXX.......OOOOOOOOOOOOOO",
"OOOOOOOOOOOOOOOOOOOOOOOOOOOO       OOOOOOO.......XXXXXXXXXXXXXXXXXXXXXXXXXXXXXXXXXXXXXXXXXX.......OOOOOOOOOOOOOO",
"OOOOOOOOOOOOOOOOOOOOOOOOOOOO       OOOOOOO.......XXXXXXXXXXXXXXXXXXXXXXXXXXXXXXXXXXXXXXXXXX.......OOOOOOOOOOOOOO",
".................................................oooooooooooooo...................................oooooooooooooo",
".................................................oooooooooooooo...................................oooooooooooooo",
".................................................oooooooooooooo...................................oooooooooooooo",
".................................................oooooooooooooo...................................oooooooooooooo",
".................................................oooooooooooooo...................................oooooooooooooo",
".................................................oooooooooooooo...................................oooooooooooooo",
".................................................oooooooooooooo...................................oooooooooooooo",
"+++++++++++++++++++++OOOOOOO.......XXXXXXXXXXXXXX++++++++++++++++++++++++++++.......       OOOOOOOOOOOOOO+++++++",
"+++++++++++++++++++++OOOOOOO.......XXXXXXXXXXXXXX++++++++++++++++++++++++++++.......       OOOOOOOOOOOOOO+++++++",
"+++++++++++++++++++++OOOOOOO.......XXXXXXXXXXXXXX++++++++++++++++++++++++++++.......       OOOOOOOOOOOOOO+++++++",
"+++++++++++++++++++++OOOOOOO.......XXXXXXXXXXXXXX++++++++++++++++++++++++++++.......       OOOOOOOOOOOOOO+++++++",
"+++++++++++++++++++++OOOOOOO.......XXXXXXXXXXXXXX++++++++++++++++++++++++++++.......       OOOOOOOOOOOOOO+++++++",
"+++++++++++++++++++++OOOOOOO.......XXXXXXXXXXXXXX++++++++++++++++++++++++++++.......       OOOOOOOOOOOOOO+++++++",
"+++++++++++++++++++++OOOOOOO.......XXXXXXXXXXXXXX++++++++++++++++++++++++++++.......       OOOOOOOOOOOOOO+++++++",
"OOOOOOOOOOOOOOOOOOOOOOOOOOOO.......       XXXXXXXXXXXXXXXXXXXXXXXXXXXXXXXXXXX.......OOOOOOOOOOOOOOOOOOOOOOOOOOOO",
"OOOOOOOOOOOOOOOOOOOOOOOOOOOO.......       XXXXXXXXXXXXXXXXXXXXXXXXXXXXXXXXXXX.......OOOOOOOOOOOOOOOOOOOOOOOOOOOO",
"OOOOOOOOOOOOOOOOOOOOOOOOOOOO.......       XXXXXXXXXXXXXXXXXXXXXXXXXXXXXXXXXXX.......OOOOOOOOOOOOOOOOOOOOOOOOOOOO",
"OOOOOOOOOOOOOOOOOOOOOOOOOOOO.......       XXXXXXXXXXXXXXXXXXXXXXXXXXXXXXXXXXX.......OOOOOOOOOOOOOOOOOOOOOOOOOOOO",
"OOOOOOOOOOOOOOOOOOOOOOOOOOOO.......       XXXXXXXXXXXXXXXXXXXXXXXXXXXXXXXXXXX.......OOOOOOOOOOOOOOOOOOOOOOOOOOOO",
"OOOOOOOOOOOOOOOOOOOOOOOOOOOO.......       XXXXXXXXXXXXXXXXXXXXXXXXXXXXXXXXXXX.......OOOOOOOOOOOOOOOOOOOOOOOOOOOO",
"OOOOOOOOOOOOOOOOOOOOOOOOOOOO.......       XXXXXXXXXXXXXXXXXXXXXXXXXXXXXXXXXXX.......OOOOOOOOOOOOOOOOOOOOOOOOOOOO",
"OOOOOOOOOOOOOOOOOOOOO       .......XXXXXXXXXXXXXXXXXXXXXXXXXXXXXXXXXXX       .......OOOOOOOOOOOOOOOOOOOOOOOOOOOO",
"OOOOOOOOOOOOOOOOOOOOO       .......XXXXXXXXXXXXXXXXXXXXXXXXXXXXXXXXXXX       .......OOOOOOOOOOOOOOOOOOOOOOOOOOOO",
"OOOOOOOOOOOOOOOOOOOOO       .......XXXXXXXXXXXXXXXXXXXXXXXXXXXXXXXXXXX       .......OOOOOOOOOOOOOOOOOOOOOOOOOOOO",
"OOOOOOOOOOOOOOOOOOOOO       .......XXXXXXXXXXXXXXXXXXXXXXXXXXXXXXXXXXX       .......OOOOOOOOOOOOOOOOOOOOOOOOOOOO",
"OOOOOOOOOOOOOOOOOOOOO       .......XXXXXXXXXXXXXXXXXXXXXXXXXXXXXXXXXXX       .......OOOOOOOOOOOOOOOOOOOOOOOOOOOO",
"OOOOOOOOOOOOOOOOOOOOO       .......XXXXXXXXXXXXXXXXXXXXXXXXXXXXXXXXXXX       .......OOOOOOOOOOOOOOOOOOOOOOOOOOOO",
"OOOOOOOOOOOOOOOOOOOOO       .......XXXXXXXXXXXXXXXXXXXXXXXXXXXXXXXXXXX       .......OOOOOOOOOOOOOOOOOOOOOOOOOOOO",
"...................................oooooooooooooo...................................oooooooooooooo..............",
"...................................oooooooooooooo...................................oooooooooooooo..............",
"...................................oooooooooooooo...................................oooooooooooooo..............",
"...................................oooooooooooooo...................................oooooooooooooo..............",
"...................................oooooooooooooo...................................oooooooooooooo..............",
"...................................oooooooooooooo...................................oooooooooooooo..............",
"...................................oooooooooooooo...................................oooooooooooooo..............",
"       XXXXXXXXXXXXXX++++++++++++++++++++++++++++.......OOOOOOOOOOOOOO+++++++++++++++++++++OOOOOOO.......       ",
"       XXXXXXXXXXXXXX++++++++++++++++++++++++++++.......OOOOOOOOOOOOOO+++++++++++++++++++++OOOOOOO.......       ",
"       XXXXXXXXXXXXXX++++++++++++++++++++++++++++.......OOOOOOOOOOOOOO+++++++++++++++++++++OOOOOOO.......       ",
"       XXXXXXXXXXXXXX++++++++++++++++++++++++++++.......OOOOOOOOOOOOOO+++++++++++++++++++++OOOOOOO.......       ",
"       XXXXXXXXXXXXXX++++++++++++++++++++++++++++.......OOOOOOOOOOOOOO+++++++++++++++++++++OOOOOOO.......       ",
"       XXXXXXXXXXXXXX++++++++++++++++++++++++++++.......OOOOOOOOOOOOOO+++++++++++++++++++++OOOOOOO.......       ",
"       XXXXXXXXXXXXXX++++++++++++++++++++++++++++.......OOOOOOOOOOOOOO+++++++++++++++++++++OOOOOOO.......       ",
"XXXXXXXXXXXXXXXXXXXXXXXXXXXXXXXXXXXXXXXXXX       oooooooOOOOOOOOOOOOOOOOOOOOOOOOOOOOOOOOOOOOOOOOOO.......XXXXXXX",
"XXXXXXXXXXXXXXXXXXXXXXXXXXXXXXXXXXXXXXXXXX       oooooooOOOOOOOOOOOOOOOOOOOOOOOOOOOOOOOOOOOOOOOOOO.......XXXXXXX",
"XXXXXXXXXXXXXXXXXXXXXXXXXXXXXXXXXXXXXXXXXX       oooooooOOOOOOOOOOOOOOOOOOOOOOOOOOOOOOOOOOOOOOOOOO.......XXXXXXX",
"XXXXXXXXXXXXXXXXXXXXXXXXXXXXXXXXXXXXXXXXXX       oooooooOOOOOOOOOOOOOOOOOOOOOOOOOOOOOOOOOOOOOOOOOO.......XXXXXXX",
"XXXXXXXXXXXXXXXXXXXXXXXXXXXXXXXXXXXXXXXXXX       oooooooOOOOOOOOOOOOOOOOOOOOOOOOOOOOOOOOOOOOOOOOOO.......XXXXXXX",
"XXXXXXXXXXXXXXXXXXXXXXXXXXXXXXXXXXXXXXXXXX       oooooooOOOOOOOOOOOOOOOOOOOOOOOOOOOOOOOOOOOOOOOOOO.......XXXXXXX",
"XXXXXXXXXXXXXXXXXXXXXXXXXXXXXXXXXXXXXXXXXX       oooooooOOOOOOOOOOOOOOOOOOOOOOOOOOOOOOOOOOOOOOOOOO.......XXXXXXX",
"XXXXXXXXXXXXXXXXXXXXXXXXXXXXXXXXXXXXXXXXXXXXXXXXXooooooo       OOOOOOOOOOOOOOOOOOOOOOOOOOOOOOOOOOO.......XXXXXXX",
"XXXXXXXXXXXXXXXXXXXXXXXXXXXXXXXXXXXXXXXXXXXXXXXXXooooooo       OOOOOOOOOOOOOOOOOOOOOOOOOOOOOOOOOOO.......XXXXXXX",
"XXXXXXXXXXXXXXXXXXXXXXXXXXXXXXXXXXXXXXXXXXXXXXXXXooooooo       OOOOOOOOOOOOOOOOOOOOOOOOOOOOOOOOOOO.......XXXXXXX",
"XXXXXXXXXXXXXXXXXXXXXXXXXXXXXXXXXXXXXXXXXXXXXXXXXooooooo       OOOOOOOOOOOOOOOOOOOOOOOOOOOOOOOOOOO.......XXXXXXX",
"XXXXXXXXXXXXXXXXXXXXXXXXXXXXXXXXXXXXXXXXXXXXXXXXXooooooo       OOOOOOOOOOOOOOOOOOOOOOOOOOOOOOOOOOO.......XXXXXXX",
"XXXXXXXXXXXXXXXXXXXXXXXXXXXXXXXXXXXXXXXXXXXXXXXXXooooooo       OOOOOOOOOOOOOOOOOOOOOOOOOOOOOOOOOOO.......XXXXXXX",
"XXXXXXXXXXXXXXXXXXXXXXXXXXXXXXXXXXXXXXXXXXXXXXXXXooooooo       OOOOOOOOOOOOOOOOOOOOOOOOOOOOOOOOOOO.......XXXXXXX"
};
